<?xml version="1.0" encoding="UTF-8"?>
<svg id="Layer_2" data-name="Layer 2" xmlns="http://www.w3.org/2000/svg" viewBox="0 0 100 100">
  <defs>
    <style>
      .cls-1 {
        fill: #ffd522;
      }
    </style>
  </defs>
  <g id="Layer_1-2" data-name="Layer 1">
    <polygon class="cls-1" points="32.32 32.32 50 0 67.68 32.32 100 50 67.68 67.68 50 100 32.32 67.68 0 50 32.32 32.32"/>
    <g>
      <path d="m30.53,49.02v-6.07h.86l1.94,3.07c.45.71.8,1.35,1.09,1.97h.02c-.07-.82-.09-1.56-.09-2.5v-2.54h.74v6.07h-.79l-1.93-3.08c-.42-.67-.83-1.37-1.13-2.03h-.03c.04.77.06,1.5.06,2.51v2.59h-.74Z"/>
      <path d="m38.84,49.02l-.06-.55h-.03c-.24.34-.71.65-1.33.65-.88,0-1.33-.62-1.33-1.25,0-1.05.94-1.63,2.62-1.62v-.09c0-.36-.1-1.01-.99-1.01-.41,0-.83.13-1.13.32l-.18-.52c.36-.23.88-.39,1.43-.39,1.33,0,1.66.91,1.66,1.78v1.63c0,.38.02.75.07,1.04h-.72Zm-.12-2.22c-.86-.02-1.85.13-1.85.98,0,.51.34.76.75.76.57,0,.93-.36,1.05-.73.03-.08.04-.17.04-.25v-.76Z"/>
      <path d="m41,44.66l.85,2.45c.14.4.26.76.35,1.12h.03c.1-.36.23-.72.37-1.12l.85-2.45h.83l-1.71,4.36h-.76l-1.66-4.36h.85Z"/>
      <path d="m45.91,43.44c0,.27-.19.49-.5.49-.28,0-.48-.22-.48-.49s.21-.5.5-.5.49.22.49.5Zm-.88,5.58v-4.36h.79v4.36h-.79Z"/>
      <path d="m50.88,44.66c-.02.32-.04.67-.04,1.2v2.53c0,1-.2,1.61-.62,1.99-.42.4-1.04.52-1.58.52s-1.1-.13-1.45-.36l.2-.6c.29.18.74.34,1.28.34.81,0,1.4-.42,1.4-1.52v-.49h-.02c-.24.4-.71.73-1.39.73-1.08,0-1.85-.92-1.85-2.12,0-1.48.96-2.31,1.96-2.31.76,0,1.17.4,1.36.76h.02l.04-.66h.69Zm-.82,1.72c0-.14,0-.25-.05-.36-.14-.46-.53-.84-1.11-.84-.76,0-1.3.64-1.3,1.65,0,.85.43,1.57,1.29,1.57.49,0,.93-.31,1.1-.81.05-.13.06-.29.06-.42v-.78Z"/>
      <path d="m54.57,49.02l-.06-.55h-.03c-.24.34-.71.65-1.33.65-.88,0-1.33-.62-1.33-1.25,0-1.05.94-1.63,2.62-1.62v-.09c0-.36-.1-1.01-.99-1.01-.4,0-.83.13-1.13.32l-.18-.52c.36-.23.88-.39,1.43-.39,1.33,0,1.66.91,1.66,1.78v1.63c0,.38.02.75.07,1.04h-.72Zm-.12-2.22c-.86-.02-1.85.13-1.85.98,0,.51.34.76.75.76.57,0,.93-.36,1.05-.73.03-.08.05-.17.05-.25v-.76Z"/>
      <path d="m57.42,43.41v1.25h1.13v.6h-1.13v2.35c0,.54.15.85.59.85.21,0,.36-.03.46-.05l.04.59c-.15.06-.4.11-.7.11-.37,0-.67-.12-.85-.33-.23-.23-.31-.62-.31-1.13v-2.38h-.68v-.6h.68v-1.04l.77-.21Z"/>
      <path d="m60.32,43.44c0,.27-.19.49-.5.49-.28,0-.48-.22-.48-.49s.21-.5.5-.5.49.22.49.5Zm-.88,5.58v-4.36h.79v4.36h-.79Z"/>
      <path d="m65.49,46.8c0,1.61-1.12,2.31-2.17,2.31-1.18,0-2.09-.86-2.09-2.24,0-1.46.95-2.31,2.16-2.31s2.1.91,2.1,2.24Zm-3.46.05c0,.95.55,1.67,1.32,1.67s1.32-.71,1.32-1.69c0-.74-.37-1.67-1.31-1.67s-1.34.86-1.34,1.69Z"/>
      <path d="m66.49,45.84c0-.45,0-.82-.04-1.18h.7l.05.72h.02c.22-.41.72-.82,1.44-.82.6,0,1.54.36,1.54,1.85v2.6h-.79v-2.51c0-.7-.26-1.29-1.01-1.29-.52,0-.93.37-1.06.81-.04.1-.05.23-.05.37v2.62h-.79v-3.18Z"/>
      <path d="m45.26,57.15c-.04-.85-.1-1.86-.09-2.62h-.03c-.21.71-.46,1.47-.77,2.3l-1.07,2.94h-.59l-.98-2.89c-.29-.86-.53-1.64-.7-2.36h-.02c-.02.76-.06,1.77-.12,2.68l-.16,2.6h-.75l.42-6.07h1l1.04,2.94c.25.75.46,1.41.61,2.04h.03c.15-.61.37-1.28.64-2.04l1.08-2.94h1l.38,6.07h-.77l-.15-2.67Z"/>
      <path d="m47.85,57.78c.02,1.07.7,1.51,1.49,1.51.57,0,.91-.1,1.21-.23l.13.57c-.28.13-.76.27-1.45.27-1.34,0-2.14-.88-2.14-2.2s.77-2.35,2.04-2.35c1.42,0,1.8,1.25,1.8,2.05,0,.16-.02.29-.03.37h-3.06Zm2.32-.57c0-.5-.21-1.29-1.1-1.29-.8,0-1.15.74-1.22,1.29h2.31Z"/>
      <path d="m51.92,56.64c0-.45,0-.82-.04-1.18h.7l.04.72h.02c.22-.41.72-.82,1.44-.82.6,0,1.54.36,1.54,1.85v2.6h-.79v-2.51c0-.7-.26-1.29-1.01-1.29-.52,0-.93.37-1.06.81-.04.1-.05.23-.05.37v2.62h-.79v-3.18Z"/>
      <path d="m60.56,58.63c0,.45,0,.85.04,1.19h-.7l-.04-.71h-.02c-.21.35-.67.81-1.44.81-.68,0-1.5-.38-1.5-1.91v-2.55h.79v2.41c0,.83.25,1.39.97,1.39.53,0,.9-.37,1.04-.72.04-.12.07-.26.07-.41v-2.67h.79v3.17Z"/>
    </g>
  </g>
</svg>